<?xml version="1.0" encoding="UTF-8" standalone="no"?>
<!DOCTYPE svg PUBLIC "-//W3C//DTD SVG 1.1//EN" "http://www.w3.org/Graphics/SVG/1.1/DTD/svg11.dtd">
<svg width="100%" height="100%" viewBox="0 0 471 471" version="1.1" xmlns="http://www.w3.org/2000/svg" xmlns:xlink="http://www.w3.org/1999/xlink" xml:space="preserve" xmlns:serif="http://www.serif.com/" style="fill-rule:evenodd;clip-rule:evenodd;stroke-linejoin:round;stroke-miterlimit:2;">
    <g transform="matrix(1,0,0,1,-792.717,-709.384)">
        <path d="M1060.84,1147.49L1029.71,1178.62C1028.62,1179.71 1026.86,1179.71 1025.78,1178.62L994.65,1147.49L1002.51,1147.49L1027.74,1172.73L1052.98,1147.49L1060.84,1147.49ZM922.15,1074.99L793.531,946.375C792.446,945.29 792.446,943.531 793.531,942.446L937.483,798.494L945.34,798.494L799.423,944.41L930.007,1074.99L922.15,1074.99ZM1125.48,1074.99L1256.06,944.41L1110.15,798.494L1118,798.494L1261.96,942.446C1263.04,943.531 1263.04,945.29 1261.96,946.375L1133.34,1074.99L1125.48,1074.99ZM1004.48,731.494L1025.78,710.197C1026.86,709.113 1028.62,709.113 1029.71,710.197L1051,731.494L1043.15,731.494L1027.74,716.09L1012.34,731.494L1004.48,731.494Z" style="fill:white;"/>
        <g transform="matrix(1.06154,0,0,0.660377,362.764,336.731)">
            <rect x="518.41" y="1048.41" width="216.667" height="70.667" style="fill:white;"/>
        </g>
        <path d="M939.539,1023.14L939.539,950.977C910.847,948.944 854.496,924.296 866.128,858.229C877.76,792.162 936.437,790.637 969.265,796.99C989.353,773.912 1026.21,775.338 1030.82,775.613C1035.44,775.338 1072.29,773.912 1092.38,796.99C1125.21,790.637 1183.89,792.162 1195.52,858.229C1207.15,924.296 1150.8,948.944 1122.11,950.977L1122.11,1023.14L939.539,1023.14ZM1062.56,865.854C1062.56,865.854 1064.44,882.616 1048.74,892.958C1051.04,910.406 1060.77,993.61 1050.31,1014.39C1047.81,1018.42 1041.95,1018.87 1039.71,1012.77C1037.48,1006.68 1029.58,977.877 1041.84,892.793C1035.56,887.982 1027.98,880.812 1028.42,868.547C1028.87,856.283 1031.67,824.595 1031.67,824.595L1035.03,824.371L1034.64,864.136L1038.95,864.294L1038.74,824.756L1043.31,824.685L1042.92,863.994L1047.74,864L1047.53,824.614L1052.02,824.772L1051.71,864.157L1055.85,864.314L1055.98,824.472L1059.43,824.324C1059.43,824.324 1063.34,861.369 1062.56,865.854ZM1001.61,921.44C1001.61,921.44 997.495,849.335 1003.44,832.791C1006.69,825.243 1011.1,825.388 1013.75,830.106C1016.39,834.824 1019.5,851.006 1018.2,868.542C1018.07,882.18 1016.37,904.737 1015.46,913.206C1015.48,917.852 1016.59,922.122 1018.98,924.667C1021.36,927.212 1024.6,933.653 1025.83,944.443C1027.05,955.232 1023.42,999.633 1013.92,1010.92C1010.5,1016.36 1003.05,1020.26 1002.09,1013.3C1001.13,1006.33 1001.53,928.123 1001.61,921.44Z" style="fill:white;"/>
        <g transform="matrix(0.882099,0,0,0.948858,281.841,-137.483)">
            <text x="703.99px" y="982.66px" style="font-family:'Quicksand-Light', 'Quicksand';font-weight:300;font-size:93.68px;fill:white;">F<tspan x="753.882px " y="982.66px ">A</tspan>MIL<tspan x="957.866px " y="982.66px ">Y</tspan></text>
        </g>
        <g transform="matrix(0.761356,-5.16055e-17,5.55112e-17,0.818977,328.879,337.521)">
            <text x="703.99px" y="982.66px" style="font-family:'Quicksand-Light', 'Quicksand';font-weight:300;font-size:108.536px;fill:white;">RECIPES</text>
        </g>
    </g>
</svg>
