<?xml version="1.0" encoding="UTF-8" standalone="no"?>
<!DOCTYPE svg PUBLIC "-//W3C//DTD SVG 1.1//EN" "http://www.w3.org/Graphics/SVG/1.1/DTD/svg11.dtd">
<svg width="100%" height="100%" viewBox="0 0 712 784" version="1.1" xmlns="http://www.w3.org/2000/svg" xmlns:xlink="http://www.w3.org/1999/xlink" xml:space="preserve" xmlns:serif="http://www.serif.com/" style="fill-rule:evenodd;clip-rule:evenodd;stroke-linejoin:round;stroke-miterlimit:2;">
    <g transform="matrix(1,0,0,1,-67.69,-31.57)">
        <path d="M163.7,31.57L263.56,31.57L263.56,815.11L163.7,815.11C138.27,815.11 117.46,794.3 117.46,768.87L117.46,713.55L67.69,713.55L67.69,674.22L117.46,674.22L117.46,578.28L67.69,578.28L67.69,538.94L117.46,538.94L117.46,443.01L67.69,443.01L67.69,403.67L117.46,403.67L117.46,307.73L67.69,307.73L67.69,268.39L117.46,268.39L117.46,172.46L67.69,172.46L67.69,133.12L117.46,133.12L117.46,77.81C117.46,52.38 138.27,31.57 163.7,31.57ZM117.46,713.55L184.9,713.55L184.9,674.22L117.46,674.22L117.46,713.55ZM117.46,307.73L184.9,307.73L184.9,268.39L117.46,268.39L117.46,307.73ZM117.46,443.01L184.9,443.01L184.9,403.67L117.46,403.67L117.46,443.01ZM117.46,578.28L184.9,578.28L184.9,538.94L117.46,538.94L117.46,578.28ZM117.46,172.46L184.9,172.46L184.9,133.12L117.46,133.12L117.46,172.46ZM661.76,485.6L661.76,559.65C661.76,575.74 648.6,588.91 632.5,588.91L445.91,588.91C429.82,588.91 416.65,575.74 416.65,559.65L416.65,485.6C333.22,463.52 341.14,325.38 440.47,325.38L458.51,325.38C470.8,235.24 607.61,235.24 619.9,325.38L637.95,325.38C737.27,325.38 745.2,463.52 661.76,485.6ZM310.93,31.57L732.73,31.57C758.17,31.57 778.97,52.38 778.97,77.81L778.97,768.87C778.97,794.3 758.17,815.11 732.73,815.11L310.93,815.11L310.93,31.57Z" style="fill:white;"/>
    </g>
</svg>
